<?xml version="1.0" standalone="no"?><!-- Generator: Gravit.io --><svg xmlns="http://www.w3.org/2000/svg" xmlns:xlink="http://www.w3.org/1999/xlink" style="isolation:isolate" width="195" height="80">
 <path fill-rule="evenodd" fill="rgb(255,255,255)" fill-opacity="100" stroke-width="1.3333333333333333" stroke="rgba(0,0,0,0)" stroke-linejoin="miter" stroke-linecap="butt" d=" M 26.467954807828875 43.06264656095266 C 24.780374049752908 43.06264656095266 23.41051649611356 41.687580758076024 23.41051649611356 40.0052082492374 C 23.41051649611356 38.30721099268669 24.780374049752908 36.93735343904734 26.467954807828875 36.93735343904734 L 69.72523419003974 36.93735343904734 C 69.08978644776934 32.06212013793902 66.92822434095856 27.337935398494324 63.23013137113267 23.551295524647458 C 63.16762838009285 23.48879253360758 63.10512538905297 23.4262895425677 63.04783064725049 23.363786551527937 L 57.719450327754004 18.03540623203139 C 57.656947336714126 17.978112823626134 57.589236096436906 17.915609832586256 57.526733105397085 17.853106841546378 L 39.614417256544044 -0.0592090073066629 L -0.45000000000001705 40.0052082492374 L 39.614417256544044 80.05920900730666 L 57.43297928553588 62.23023047984009 C 57.53194135463443 62.141684909216224 57.6256965078928 62.05313800519525 57.719450327754004 61.9593841853341 L 63.04783064725049 56.64142169770935 C 63.13637621787436 56.54245829521369 63.21971353926082 56.44870314195532 63.31346869251914 56.35494932209417 C 66.95947650317706 52.58914377859389 69.09499469700674 47.90141945060509 69.73044243927714 43.06264656095266 L 26.467954807828875 43.06264656095266 Z "/>
 <path fill-rule="evenodd" fill="rgb(255,255,255)" fill-opacity="100" stroke-width="1.3333333333333333" stroke="rgba(0,0,0,0)" stroke-linejoin="miter" stroke-linecap="butt" d=" M 194.94997607168122 2.5607083671296778 L 139.56711776113653 2.5607083671296778 L 139.56711776113653 16.95723063664184 C 139.56711776113653 16.95723063664184 158.85970766210366 16.95723063664184 159.82329510728536 16.95723063664184 C 159.82329510728536 17.952068910644925 159.82329510728536 79.12687239094623 159.82329510728536 79.12687239094623 L 175.20423915232587 79.12687239094623 C 175.20423915232587 79.12687239094623 175.20423915232587 17.952068910644925 175.20423915232587 16.95723063664184 C 176.16261834827023 16.95723063664184 195.45000000000002 16.95723063664184 195.45000000000002 16.95723063664184 L 195.45000000000002 2.5607083671296778 L 194.94997607168122 2.5607083671296778 Z "/>
 <path fill-rule="evenodd" fill="rgb(255,255,255)" fill-opacity="100" stroke-width="1.3333333333333333" stroke="rgba(0,0,0,0)" stroke-linejoin="miter" stroke-linecap="butt" d=" M 113.22731595377556 64.9386934249003 C 113.22731595377556 64.9386934249003 94.22640667766106 64.9386934249003 93.2680274817167 64.9386934249003 C 93.2680274817167 64.00635680853986 93.2680274817167 47.39618727304901 93.2680274817167 46.46385065668858 C 94.22640667766106 46.46385065668858 112.90438316670438 46.46385065668858 112.90438316670438 46.46385065668858 C 119.87867558358371 46.46385065668858 123.72260886583584 49.80255176138451 123.72260886583584 55.86534189225006 C 123.72260886583584 63.37090906626952 118.01400235086285 64.9386934249003 113.22731595377556 64.9386934249003 Z  M 93.2680274817167 16.634297849570657 C 94.22640667766106 16.634297849570657 113.22731595377556 16.634297849570657 113.22731595377556 16.634297849570657 C 118.35776946828068 16.634297849570657 121.54542201131304 19.61360708913685 121.54542201131304 24.400294819621422 C 121.54542201131304 28.968221414767754 118.05046276231874 32.28087993987981 113.22731595377556 32.28087993987981 C 113.22731595377556 32.28087993987981 94.22640667766106 32.28087993987981 93.2680274817167 32.28087993987981 C 93.2680274817167 31.364169404628683 93.2680274817167 17.551008384821785 93.2680274817167 16.634297849570657 Z  M 129.47288404150206 38.260332749358895 C 133.98872547748059 34.728914422305934 136.48884511907457 29.535956583363827 136.48884511907457 23.53046119430087 C 136.48884511907457 16.97806496698854 134.5147919853833 11.811151041027529 130.6239804598034 8.185977560716196 C 126.61858078401556 4.451422846037303 120.75892570737895 2.5607083671296778 113.22731595377556 2.5607083671296778 L 77.88708210327903 2.5607083671296778 L 77.88708210327903 33.01008150201142 L 86.61666651851144 39.99479041736549 L 77.88708210327903 46.98470891535396 L 77.88708210327903 79.12687239094623 L 115.19095125559491 79.12687239094623 C 129.91561322801843 79.12687239094623 139.42648569794753 70.20977900259436 139.42648569794753 56.41224273049943 C 139.42648569794753 48.21914265504165 135.98361294151843 41.96884355105669 129.47288404150206 38.260332749358895 Z "/>
</svg>
