<?xml version="1.0" standalone="no"?>
<!DOCTYPE svg PUBLIC "-//W3C//DTD SVG 20010904//EN"
 "http://www.w3.org/TR/2001/REC-SVG-20010904/DTD/svg10.dtd">
<svg version="1.0" xmlns="http://www.w3.org/2000/svg"
 width="16.000000pt" height="16.000000pt" viewBox="0 0 16.000000 16.000000"
 preserveAspectRatio="xMidYMid meet">
<metadata>
Created by potrace 1.11, written by Peter Selinger 2001-2013
</metadata>
<g transform="translate(0.000000,16.000000) scale(0.003008,-0.003008)"
fill="#000000" stroke="none">
<path d="M1030 3682 c-30 -31 -53 -61 -52 -66 2 -6 1 -8 -3 -4 -9 9 -161 -142
-157 -156 2 -6 1 -8 -3 -4 -9 8 -111 -91 -107 -104 1 -5 -1 -7 -6 -4 -11 6
-43 -30 -34 -39 4 -4 2 -5 -3 -3 -14 4 -171 -152 -167 -166 2 -6 1 -8 -3 -4
-10 9 -81 -61 -77 -76 2 -6 1 -8 -3 -4 -9 8 -191 -171 -187 -184 1 -5 -1 -7
-6 -4 -11 6 -43 -30 -34 -39 4 -4 2 -5 -3 -3 -6 2 -48 -34 -94 -79 -75 -74
-82 -85 -70 -100 8 -10 251 -255 542 -545 l527 -528 341 341 c188 188 356 365
374 393 46 74 77 146 94 224 l9 42 -594 0 c-608 0 -634 2 -649 39 -16 39 -23
71 -15 71 5 0 11 8 15 18 12 41 33 42 649 42 l594 0 -9 43 c-19 88 -59 176
-112 246 -32 44 -609 628 -683 693 -18 16 -22 14 -74 -40z"/>
<path d="M2130 3257 l0 -412 38 -30 c20 -16 40 -29 45 -27 4 1 7 -2 7 -7 0 -4
34 -35 75 -67 l75 -59 -27 -20 c-16 -11 -38 -30 -50 -42 -13 -12 -23 -19 -23
-15 0 4 -4 2 -8 -3 -4 -6 -29 -28 -57 -50 -27 -21 -56 -46 -62 -54 -10 -11
-13 -116 -13 -446 l0 -430 553 1 c303 0 568 4 587 8 88 18 130 30 130 38 0 4
6 5 13 3 16 -7 161 76 204 117 71 68 147 204 157 280 3 18 6 33 7 33 4 0 9 52
12 122 3 75 -21 222 -41 245 -5 7 -11 18 -13 23 -4 22 -25 61 -44 84 -47 57
-98 111 -102 107 -3 -2 -13 4 -23 14 -9 9 -24 20 -31 23 -10 3 -7 12 14 31 15
15 27 31 27 37 0 6 5 7 10 4 6 -3 10 0 10 8 0 8 7 18 16 21 8 3 12 10 9 16 -3
5 -2 10 3 10 12 0 64 108 66 137 0 13 3 23 6 23 21 0 15 217 -9 303 -57 208
-186 319 -436 374 -16 3 -276 8 -577 9 l-548 4 0 -413z m981 32 c123 -8 201
-88 200 -204 -1 -63 -3 -72 -26 -115 -21 -40 -33 -51 -90 -82 -38 -21 -52 -22
-345 -24 l-306 -2 0 212 c0 160 3 212 13 216 12 5 472 4 554 -1z m27 -812 c67
-10 120 -28 138 -49 10 -10 23 -18 30 -18 8 0 16 -11 20 -25 3 -14 9 -23 13
-20 12 7 34 -94 32 -152 0 -31 -10 -75 -21 -101 -20 -46 -73 -101 -97 -102 -7
0 -13 -4 -13 -8 0 -4 -8 -8 -17 -9 -10 0 -29 -4 -43 -8 -25 -7 -591 -13 -620
-7 -23 5 -24 500 -1 504 28 6 536 1 579 -5z"/>
<path d="M3804 3476 l1 -191 274 -1 274 0 0 -845 0 -844 206 0 206 0 0 843 c0
835 0 842 20 843 11 0 134 1 273 1 l252 0 1 37 c0 40 0 218 -1 298 l0 51 -753
0 -754 0 1 -192z"/>
</g>
</svg>
